<svg width="15" height="15" viewBox="0 0 15 15" fill="none" xmlns="http://www.w3.org/2000/svg">
<path d="M11.8378 10.7916L15 13.9539L13.9539 15L10.7917 11.8375C7.92457 14.1262 3.74097 13.6587 1.45219 10.7916C-0.836586 7.92448 -0.369467 3.74076 2.49766 1.452C5.36479 -0.836755 9.54898 -0.369189 11.8378 2.49791C13.7697 4.92203 13.7697 8.36746 11.8378 10.7916ZM10.3609 10.2502C12.3543 8.20757 12.293 4.93432 10.2503 2.94088C8.20766 0.947445 4.93454 1.00893 2.94108 3.05159C0.947629 5.09424 1.00896 8.36749 3.05164 10.3609C5.0574 12.3051 8.24458 12.3051 10.2503 10.3609L10.3609 10.2502Z" fill="white"/>
</svg>
