<svg width="1920" height="800" viewBox="0 0 1920 800" fill="none" xmlns="http://www.w3.org/2000/svg">
<rect width="1936" height="800" transform="translate(-8)" fill="white"/>
<rect width="1936" height="800" transform="translate(-8)" fill="url(#paint0_linear_6_7)" fill-opacity="0.28"/>
<rect x="1700.5" y="110.5" width="49" height="49" rx="24.5" stroke="black"/>
<path d="M1726 134L1735 134V136L1726 136V145H1724V136L1715 136L1715 134L1724 134L1724 125L1726 125L1726 134Z" fill="black"/>
<g opacity="0.28">
<path d="M1672.7 720.803C1672.7 733.144 1682.82 743.187 1695.26 743.187C1701.29 743.187 1706.95 740.858 1711.22 736.63C1715.48 732.402 1717.83 726.782 1717.83 720.805C1717.83 713.218 1720.81 706.084 1726.22 700.712C1731.63 695.344 1738.83 692.389 1746.48 692.389C1754.12 692.389 1761.32 695.344 1766.73 700.712C1772.14 706.082 1775.12 713.216 1775.12 720.805C1775.12 733.147 1785.25 743.189 1797.69 743.189C1803.73 743.189 1809.4 740.861 1813.67 736.632C1817.93 732.42 1820.28 726.8 1820.28 720.807C1820.28 713.221 1823.26 706.086 1828.67 700.714C1834.08 695.346 1841.27 692.391 1848.92 692.391C1854.95 692.391 1860.62 690.063 1864.88 685.835C1869.14 681.622 1871.49 676.002 1871.49 670.008C1871.49 664.013 1869.14 658.395 1864.88 654.185C1860.61 649.954 1854.95 647.626 1848.92 647.626C1842.89 647.626 1837.21 649.954 1832.97 654.178C1828.7 658.395 1826.36 664.013 1826.36 670.008C1826.36 677.619 1823.37 684.758 1817.96 690.105C1812.55 695.471 1805.35 698.426 1797.69 698.426C1781.89 698.426 1769.04 685.679 1769.04 670.008C1769.04 664.011 1766.69 658.393 1762.43 654.185C1758.18 649.952 1752.52 647.626 1746.47 647.626C1740.43 647.626 1734.76 649.954 1730.52 654.178C1726.25 658.395 1723.9 664.013 1723.9 670.008C1723.9 677.597 1720.93 684.733 1715.51 690.101C1710.1 695.471 1702.91 698.426 1695.26 698.426C1689.23 698.426 1683.57 700.754 1679.3 704.983C1675.04 709.213 1672.69 714.833 1672.69 720.81L1672.7 720.803Z" fill="#A7CFAE"/>
<path d="M1644.04 743.196C1656.48 743.196 1666.61 733.153 1666.61 720.81C1666.61 708.466 1656.48 698.422 1644.04 698.422C1631.59 698.422 1621.47 708.466 1621.47 720.81C1621.47 733.153 1631.59 743.196 1644.04 743.196Z" fill="#A7CFAE"/>
<path d="M1900.14 546C1887.7 546 1877.57 556.044 1877.57 568.388C1877.57 580.732 1887.7 590.776 1900.14 590.776C1912.59 590.776 1922.71 580.732 1922.71 568.388C1922.71 556.044 1912.59 546 1900.14 546Z" fill="#A7CFAE"/>
<path d="M1775.13 619.201C1775.13 631.541 1785.25 641.581 1797.69 641.581C1803.71 641.581 1809.38 639.25 1813.67 635.02C1817.93 630.798 1820.27 625.178 1820.27 619.204C1820.27 613.229 1817.93 607.591 1813.66 603.363C1809.4 599.137 1803.73 596.807 1797.69 596.807C1791.66 596.807 1786 599.135 1781.74 603.363C1777.48 607.607 1775.13 613.236 1775.13 619.204V619.201Z" fill="#A7CFAE"/>
<path d="M1826.36 771.623C1826.36 783.935 1836.44 793.955 1848.85 793.998H1849.01C1855 793.978 1860.64 791.654 1864.88 787.448C1869.15 783.22 1871.5 777.6 1871.5 771.623C1871.5 765.646 1869.15 760.008 1864.88 755.78C1860.6 751.554 1854.93 749.224 1848.92 749.224C1842.91 749.224 1837.23 751.552 1832.97 755.78C1828.7 760.008 1826.35 765.635 1826.35 771.623H1826.36Z" fill="#A7CFAE"/>
<path d="M1746.48 749.224C1740.45 749.224 1734.78 751.552 1730.52 755.78C1726.26 760.009 1723.91 765.635 1723.91 771.623C1723.91 783.936 1733.99 793.956 1746.4 793.998H1746.56C1752.57 793.978 1758.21 791.656 1762.43 787.45C1766.7 783.22 1769.05 777.598 1769.05 771.621C1769.05 765.644 1766.7 760.007 1762.44 755.778C1758.17 751.55 1752.51 749.222 1746.48 749.222V749.224Z" fill="#A7CFAE"/>
<path d="M1893.83 747.79C1893.83 749.547 1894.52 751.2 1895.77 752.449C1898.69 755.341 1898.69 760.049 1895.77 762.944C1894.52 764.188 1893.83 765.843 1893.83 767.602C1893.83 769.362 1894.52 771.017 1895.77 772.261C1898.69 775.153 1898.69 779.859 1895.77 782.751C1894.52 783.991 1893.83 785.646 1893.83 787.41C1893.83 789.172 1894.52 790.827 1895.77 792.067C1897.02 793.309 1898.69 793.996 1900.47 794C1902.25 794 1903.91 793.316 1905.17 792.071C1907.76 789.502 1907.75 785.323 1905.16 782.751C1903.75 781.355 1902.98 779.493 1902.97 777.506C1902.98 775.519 1903.75 773.657 1905.16 772.259C1907.75 769.69 1907.75 765.508 1905.17 762.939C1903.75 761.534 1902.97 759.67 1902.98 757.692C1902.97 755.716 1903.75 753.851 1905.17 752.446C1907.76 749.877 1907.76 745.7 1905.17 743.131C1903.91 741.885 1902.24 741.198 1900.47 741.202C1898.7 741.202 1897.03 741.887 1895.77 743.131C1894.52 744.378 1893.83 746.033 1893.83 747.788V747.79Z" fill="#A7CFAE"/>
<path d="M1670.27 599.978C1669.05 598.767 1667.42 598.098 1665.68 598.095C1663.95 598.095 1662.32 598.764 1661.1 599.978C1659.72 601.347 1657.88 602.103 1655.93 602.103C1653.98 602.107 1652.15 601.354 1650.76 599.982C1649.54 598.764 1647.91 598.095 1646.18 598.1C1644.45 598.095 1642.82 598.764 1641.6 599.982C1639.07 602.489 1639.07 606.57 1641.6 609.077C1642.82 610.294 1644.45 610.963 1646.18 610.959C1647.91 610.959 1649.54 610.29 1650.76 609.077C1652.15 607.705 1653.98 606.951 1655.93 606.956C1657.88 606.956 1659.71 607.709 1661.09 609.077C1662.32 610.294 1663.95 610.963 1665.68 610.959C1667.41 610.959 1669.04 610.288 1670.26 609.072C1671.49 607.859 1672.16 606.244 1672.16 604.525C1672.16 602.808 1671.49 601.191 1670.26 599.978H1670.27Z" fill="#A7CFAE"/>
</g>
<g opacity="0.28">
<path d="M43.2301 250.803C43.2301 263.144 53.3543 273.187 65.7964 273.187C71.8219 273.187 77.4877 270.858 81.7505 266.63C86.0133 262.402 88.3606 256.782 88.3606 250.805C88.3606 243.218 91.3396 236.084 96.7535 230.712C102.167 225.344 109.36 222.389 117.009 222.389C124.657 222.389 131.852 225.344 137.266 230.712C142.678 236.082 145.657 243.216 145.657 250.805C145.657 263.147 155.781 273.189 168.225 273.189C174.262 273.189 179.937 270.861 184.2 266.632C188.465 262.42 190.81 256.8 190.81 250.807C190.81 243.221 193.789 236.086 199.203 230.714C204.614 225.346 211.807 222.391 219.458 222.391C225.483 222.391 231.149 220.063 235.412 215.835C239.677 211.622 242.022 206.002 242.022 200.008C242.022 194.013 239.675 188.395 235.414 184.185C231.147 179.954 225.483 177.626 219.455 177.626C213.428 177.626 207.746 179.954 203.506 184.178C199.234 188.395 196.889 194.013 196.889 200.008C196.889 207.619 193.908 214.758 188.492 220.105C183.084 225.471 175.883 228.426 168.221 228.426C152.422 228.426 139.57 215.679 139.57 200.008C139.57 194.011 137.223 188.393 132.965 184.185C128.716 179.952 123.05 177.626 117.004 177.626C110.958 177.626 105.295 179.954 101.052 184.178C96.7828 188.395 94.4378 194.013 94.4378 200.008C94.4378 207.597 91.4587 214.733 86.0448 220.101C80.6331 225.471 73.4407 228.426 65.7897 228.426C59.762 228.426 54.0985 230.754 49.8356 234.983C45.5728 239.213 43.2256 244.833 43.2256 250.81L43.2301 250.803Z" fill="#A7CFAE" fill-opacity="0.65"/>
<path d="M14.5709 273.196C27.0153 273.196 37.1417 263.153 37.1417 250.81C37.1417 238.466 27.0153 228.422 14.5709 228.422C2.12642 228.422 -8 238.466 -8 250.81C-8 263.153 2.12642 273.196 14.5709 273.196Z" fill="#A7CFAE" fill-opacity="0.65"/>
<path d="M270.677 76C258.232 76 248.108 86.0444 248.108 98.3881C248.108 110.732 258.232 120.776 270.677 120.776C283.121 120.776 293.247 110.732 293.247 98.3881C293.247 86.0444 283.121 76 270.677 76Z" fill="#A7CFAE" fill-opacity="0.65"/>
<path d="M145.666 149.201C145.666 161.541 155.785 171.581 168.227 171.581C174.244 171.581 179.916 169.25 184.202 165.02C188.46 160.798 190.807 155.178 190.807 149.204C190.807 143.229 188.46 137.591 184.197 133.363C179.937 129.137 174.262 126.807 168.227 126.807C162.193 126.807 156.536 129.135 152.276 133.363C148.015 137.607 145.666 143.236 145.666 149.204V149.201Z" fill="#A7CFAE" fill-opacity="0.65"/>
<path d="M196.889 301.623C196.889 313.935 206.973 323.955 219.381 323.998H219.541C225.537 323.978 231.171 321.654 235.416 317.448C239.679 313.22 242.028 307.6 242.028 301.623C242.028 295.646 239.679 290.008 235.416 285.78C231.135 281.554 225.467 279.224 219.458 279.224C213.448 279.224 207.764 281.552 203.499 285.78C199.236 290.008 196.887 295.635 196.887 301.623H196.889Z" fill="#A7CFAE" fill-opacity="0.65"/>
<path d="M117.011 279.224C110.985 279.224 105.317 281.552 101.052 285.78C96.7894 290.009 94.4399 295.635 94.4399 301.623C94.4399 313.936 104.524 323.956 116.932 323.998H117.092C123.106 323.978 128.74 321.656 132.965 317.45C137.232 313.22 139.579 307.598 139.579 301.621C139.579 295.644 137.232 290.007 132.969 285.778C128.707 281.55 123.039 279.222 117.011 279.222V279.224Z" fill="#A7CFAE" fill-opacity="0.65"/>
<path d="M264.363 277.79C264.359 279.547 265.049 281.2 266.308 282.449C269.224 285.341 269.222 290.049 266.304 292.944C265.049 294.188 264.359 295.843 264.359 297.602C264.359 299.362 265.049 301.017 266.304 302.261C269.22 305.153 269.22 309.859 266.304 312.751C265.054 313.991 264.363 315.646 264.359 317.41C264.363 319.172 265.054 320.827 266.304 322.067C267.556 323.309 269.227 323.996 271.005 324C272.779 324 274.445 323.316 275.699 322.071C278.289 319.502 278.287 315.323 275.695 312.751C274.287 311.355 273.51 309.493 273.505 307.506C273.51 305.519 274.287 303.657 275.695 302.259C278.285 299.69 278.287 295.508 275.699 292.939C274.283 291.534 273.505 289.67 273.51 287.692C273.505 285.716 274.283 283.851 275.699 282.446C278.289 279.877 278.289 275.7 275.699 273.131C274.443 271.885 272.774 271.198 271.005 271.202C269.229 271.202 267.563 271.887 266.308 273.131C265.051 274.378 264.359 276.033 264.363 277.788V277.79Z" fill="#A7CFAE" fill-opacity="0.65"/>
<path d="M40.7998 129.978C39.5789 128.767 37.9511 128.098 36.2132 128.095C34.482 128.095 32.8542 128.764 31.6289 129.978C30.2484 131.347 28.4115 132.103 26.4622 132.103C24.5152 132.107 22.6828 131.354 21.2979 129.982C20.0703 128.764 18.4425 128.095 16.7135 128.1C14.9846 128.095 13.3568 128.764 12.1292 129.982C9.60211 132.489 9.60211 136.57 12.1292 139.077C13.3568 140.294 14.9846 140.963 16.7135 140.959C18.447 140.959 20.0748 140.29 21.2979 139.077C22.6806 137.705 24.5152 136.951 26.4622 136.956C28.4115 136.956 30.2462 137.709 31.6244 139.077C32.852 140.294 34.4797 140.963 36.2087 140.959C37.9421 140.959 39.5722 140.288 40.7975 139.072C42.0206 137.859 42.6951 136.244 42.6951 134.525C42.6951 132.808 42.0206 131.191 40.7975 129.978H40.7998Z" fill="#A7CFAE" fill-opacity="0.65"/>
</g>
<defs>
<linearGradient id="paint0_linear_6_7" x1="1936" y1="-6.69796e-05" x2="12.2983" y2="828.554" gradientUnits="userSpaceOnUse">
<stop stop-color="#8FFFA4"/>
<stop offset="0.5" stop-color="#F5F6ED"/>
</linearGradient>
</defs>
</svg>
