<svg width="45" height="46" viewBox="0 0 45 46" fill="none" xmlns="http://www.w3.org/2000/svg">
<g clip-path="url(#clip0_6_261)">
<path d="M35.2426 0.997986H0.986328V39.1251H35.2426V0.997986Z" fill="white"/>
<path d="M35.2425 40.123H0.986265C0.442724 40.123 0 39.6751 0 39.1251V0.997975C0 0.44798 0.442724 0 0.986265 0H35.2425C35.7861 0 36.2288 0.44798 36.2288 0.997975V39.1251C36.2288 39.6751 35.7861 40.123 35.2425 40.123ZM1.97253 38.1271H34.2563V1.99595H1.97253V38.1271Z" fill="#595757"/>
<path d="M30.482 18.9615C30.482 11.4479 24.4636 5.35803 17.0381 5.35803C9.61265 5.35803 3.59424 11.4479 3.59424 18.9615C3.59424 26.4752 9.61265 32.5651 17.0381 32.5651C24.4636 32.5651 30.482 26.4752 30.482 18.9615Z" fill="#EFEFEF"/>
<path d="M10.1957 11.4567C9.94147 11.4567 9.69162 11.3592 9.49875 11.164L7.3728 9.01282C6.98706 8.6225 6.98706 7.99267 7.3728 7.60235C7.75854 7.21203 8.38098 7.21203 8.76672 7.60235L10.1913 9.04387L13.137 6.06325C13.5227 5.67293 14.1452 5.67293 14.5309 6.06325C14.9166 6.45357 14.9166 7.0834 14.5309 7.47372L10.8883 11.1596C10.6954 11.3547 10.4456 11.4523 10.1913 11.4523L10.1957 11.4567Z" fill="#595757"/>
<path d="M28.856 9.61604H17.9282C17.3846 9.61604 16.9419 9.16806 16.9419 8.61806C16.9419 8.06807 17.3846 7.62009 17.9282 7.62009H28.856C29.3995 7.62009 29.8422 8.06807 29.8422 8.61806C29.8422 9.16806 29.3995 9.61604 28.856 9.61604Z" fill="#595757"/>
<path d="M10.1957 21.9643C9.94147 21.9643 9.69162 21.8667 9.49875 21.6716L7.3728 19.5204C6.98706 19.1301 6.98706 18.5002 7.3728 18.1099C7.75854 17.7196 8.38098 17.7196 8.76672 18.1099L10.1913 19.5514L13.137 16.5708C13.5227 16.1805 14.1452 16.1805 14.5309 16.5708C14.9166 16.9611 14.9166 17.591 14.5309 17.9813L10.8883 21.6671C10.6954 21.8623 10.4456 21.9599 10.1913 21.9599L10.1957 21.9643Z" fill="#595757"/>
<path d="M10.1957 32.4719C9.93271 32.4719 9.68285 32.3654 9.49875 32.1791L7.3728 30.0279C6.98706 29.6376 6.98706 29.0078 7.3728 28.6175C7.75854 28.2272 8.38098 28.2272 8.76672 28.6175L10.1913 30.0634L13.137 27.0828C13.5227 26.6925 14.1452 26.6925 14.5309 27.0828C14.9166 27.4731 14.9166 28.103 14.5309 28.4933L10.8883 32.1791C10.7042 32.3654 10.4543 32.4719 10.1913 32.4719H10.1957Z" fill="#595757"/>
<path d="M16.5342 21.4542V45.002H40.2308C42.3217 45.002 44.0137 43.2899 44.0137 41.1742V21.4498H16.5342V21.4542Z" fill="white"/>
<path d="M40.2308 46H16.5341C15.9906 46 15.5479 45.552 15.5479 45.002V21.4542C15.5479 20.9042 15.9906 20.4563 16.5341 20.4563H44.0137C44.5572 20.4563 44.9999 20.9042 44.9999 21.4542V41.1787C44.9999 43.8399 42.8608 46.0044 40.2308 46.0044V46ZM17.5204 44.004H40.2308C41.7737 44.004 43.0274 42.7355 43.0274 41.1742V22.4478H17.5204V43.9996V44.004Z" fill="#595757"/>
<path d="M44.0137 27.2248V21.4543H16.5342V27.2248" fill="#82BC5E"/>
<path d="M44.0137 28.2227C43.4701 28.2227 43.0274 27.7748 43.0274 27.2248V22.4522H17.5204V27.2248C17.5204 27.7748 17.0777 28.2227 16.5341 28.2227C15.9906 28.2227 15.5479 27.7748 15.5479 27.2248V21.4542C15.5479 20.9042 15.9906 20.4563 16.5341 20.4563H44.0137C44.5572 20.4563 44.9999 20.9042 44.9999 21.4542V27.2248C44.9999 27.7748 44.5572 28.2227 44.0137 28.2227Z" fill="#595757"/>
<path d="M20.8564 22.0486C20.3128 22.0486 19.8701 21.6006 19.8701 21.0506V19.1833C19.8701 18.6333 20.3128 18.1853 20.8564 18.1853C21.3999 18.1853 21.8426 18.6333 21.8426 19.1833V21.0506C21.8426 21.6006 21.3999 22.0486 20.8564 22.0486Z" fill="#595757"/>
<path d="M30.2719 22.0486C29.7284 22.0486 29.2856 21.6006 29.2856 21.0506V19.1833C29.2856 18.6333 29.7284 18.1853 30.2719 18.1853C30.8155 18.1853 31.2582 18.6333 31.2582 19.1833V21.0506C31.2582 21.6006 30.8155 22.0486 30.2719 22.0486Z" fill="#595757"/>
<path d="M39.6918 22.0486C39.1483 22.0486 38.7056 21.6006 38.7056 21.0506V19.1833C38.7056 18.6333 39.1483 18.1853 39.6918 18.1853C40.2354 18.1853 40.6781 18.6333 40.6781 19.1833V21.0506C40.6781 21.6006 40.2354 22.0486 39.6918 22.0486Z" fill="#595757"/>
<path d="M28.9171 39.5553C28.6629 39.5553 28.4131 39.4577 28.2202 39.2626L24.6521 35.6521C24.2664 35.2618 24.2664 34.632 24.6521 34.2416C25.0378 33.8513 25.6603 33.8513 26.046 34.2416L28.9171 37.1469L34.5016 31.4961C34.8873 31.1058 35.5098 31.1058 35.8955 31.4961C36.2813 31.8864 36.2813 32.5163 35.8955 32.9066L29.6141 39.2626C29.4212 39.4577 29.1714 39.5553 28.9171 39.5553Z" fill="#595757"/>
</g>
<defs>
<clipPath id="clip0_6_261">
<rect width="45" height="46" fill="white"/>
</clipPath>
</defs>
</svg>
