<svg width="43" height="43" viewBox="0 0 43 43" fill="none" xmlns="http://www.w3.org/2000/svg">
<g clip-path="url(#clip0_6_286)">
<path d="M40.1603 9.06949H2.84473V38.0918H40.1603V9.06949Z" fill="white"/>
<path d="M40.1601 39.0521H2.84451C2.33038 39.0521 1.91162 38.6211 1.91162 38.0918V9.06949C1.91162 8.54026 2.33038 8.10919 2.84451 8.10919H40.1601C40.6742 8.10919 41.093 8.54026 41.093 9.06949V38.0918C41.093 38.6211 40.6742 39.0521 40.1601 39.0521ZM3.7774 37.1315H39.2272V10.0298H3.7774V37.1315Z" fill="#595757"/>
<path d="M34.7699 0.960297H8.23438V38.0918H34.7699V0.960297Z" fill="white"/>
<path d="M34.7697 39.0521H8.23416C7.72003 39.0521 7.30127 38.621 7.30127 38.0918V0.960298C7.30127 0.431067 7.72003 0 8.23416 0H34.7697C35.2838 0 35.7026 0.431067 35.7026 0.960298V38.0918C35.7026 38.621 35.2838 39.0521 34.7697 39.0521ZM9.16705 37.1315H33.8368V1.9206H9.16705V37.1315Z" fill="#595757"/>
<path d="M0.933105 36.773C0.933105 39.6795 3.2218 42.0397 6.04949 42.0397H36.9551C39.7786 42.0397 42.0715 39.6838 42.0715 36.773H0.933105Z" fill="white"/>
<path d="M36.9549 43H6.04927C2.71575 43 0 40.2087 0 36.773C0 36.2438 0.418764 35.8127 0.93289 35.8127H42.0671C42.5812 35.8127 43 36.2438 43 36.773C43 40.2045 40.2884 43 36.9507 43H36.9549ZM1.96943 37.7333C2.39649 39.6454 4.05911 41.0794 6.04513 41.0794H36.9507C38.9367 41.0794 40.6035 39.6496 41.0264 37.7333H1.96943Z" fill="#595757"/>
<path d="M31.7842 21.097C31.8615 15.2518 27.3209 10.4488 21.6426 10.3692C15.9642 10.2897 11.2983 14.9636 11.221 20.8088C11.1437 26.654 15.6843 31.4569 21.3626 31.5365C27.041 31.6161 31.7069 26.9422 31.7842 21.097Z" fill="#EFEFEF"/>
<path d="M29.8985 5.68069H13.1064V9.04387H29.8985V5.68069Z" fill="white"/>
<path d="M29.8982 10.0042H13.1062C12.5921 10.0042 12.1733 9.5731 12.1733 9.04387V5.6807C12.1733 5.15146 12.5921 4.7204 13.1062 4.7204H29.8982C30.4124 4.7204 30.8311 5.15146 30.8311 5.6807V9.04387C30.8311 9.5731 30.4124 10.0042 29.8982 10.0042ZM14.0391 8.08357H28.9654V6.64099H14.0391V8.08357Z" fill="#82BC5E"/>
<path d="M18.3924 21.0753H13.6243C13.1102 21.0753 12.6914 20.6443 12.6914 20.1151V13.4997C12.6914 12.9704 13.1102 12.5394 13.6243 12.5394H18.3924C18.9065 12.5394 19.3253 12.9704 19.3253 13.4997V20.1151C19.3253 20.6443 18.9065 21.0753 18.3924 21.0753ZM14.5572 19.1548H17.4595V14.46H14.5572V19.1548Z" fill="#595757"/>
<path d="M29.3796 15.8428H22.5384C22.0242 15.8428 21.6055 15.4117 21.6055 14.8825C21.6055 14.3533 22.0242 13.9222 22.5384 13.9222H29.3796C29.8937 13.9222 30.3124 14.3533 30.3124 14.8825C30.3124 15.4117 29.8937 15.8428 29.3796 15.8428Z" fill="#595757"/>
<path d="M29.3796 19.684H22.5384C22.0242 19.684 21.6055 19.2529 21.6055 18.7237C21.6055 18.1945 22.0242 17.7634 22.5384 17.7634H29.3796C29.8937 17.7634 30.3124 18.1945 30.3124 18.7237C30.3124 19.2529 29.8937 19.684 29.3796 19.684Z" fill="#595757"/>
<path d="M18.3924 32.3855H13.6243C13.1102 32.3855 12.6914 31.9544 12.6914 31.4252V24.8098C12.6914 24.2806 13.1102 23.8495 13.6243 23.8495H18.3924C18.9065 23.8495 19.3253 24.2806 19.3253 24.8098V31.4252C19.3253 31.9544 18.9065 32.3855 18.3924 32.3855ZM14.5572 30.4649H17.4595V25.7701H14.5572V30.4649Z" fill="#595757"/>
<path d="M29.3796 27.1529H22.5384C22.0242 27.1529 21.6055 26.7219 21.6055 26.1926C21.6055 25.6634 22.0242 25.2323 22.5384 25.2323H29.3796C29.8937 25.2323 30.3124 25.6634 30.3124 26.1926C30.3124 26.7219 29.8937 27.1529 29.3796 27.1529Z" fill="#595757"/>
<path d="M29.3796 30.9941H22.5384C22.0242 30.9941 21.6055 30.563 21.6055 30.0338C21.6055 29.5046 22.0242 29.0735 22.5384 29.0735H29.3796C29.8937 29.0735 30.3124 29.5046 30.3124 30.0338C30.3124 30.563 29.8937 30.9941 29.3796 30.9941Z" fill="#595757"/>
</g>
<defs>
<clipPath id="clip0_6_286">
<rect width="43" height="43" fill="white"/>
</clipPath>
</defs>
</svg>
