<svg width="44" height="46" viewBox="0 0 44 46" fill="none" xmlns="http://www.w3.org/2000/svg">
<g clip-path="url(#clip0_6_311)">
<path d="M23.5154 45.002C34.2813 45.002 43.0088 36.2148 43.0088 25.3752C43.0088 14.5356 34.2813 5.74834 23.5154 5.74834C12.7495 5.74834 4.02197 14.5356 4.02197 25.3752C4.02197 36.2148 12.7495 45.002 23.5154 45.002Z" fill="#EFEFEF"/>
<path d="M33.9692 0.997971H0.991211V31.8554L8.652 39.5642H33.9692V0.997971Z" fill="white"/>
<path d="M33.9692 40.5621H8.65198C8.38767 40.5621 8.13656 40.4557 7.95154 40.2694L0.290749 32.5606C0.105727 32.3699 0 32.1171 0 31.8554V0.997975C0 0.44798 0.444934 0 0.991189 0H33.9692C34.5154 0 34.9604 0.44798 34.9604 0.997975V39.5642C34.9604 40.1142 34.5154 40.5621 33.9692 40.5621ZM9.06167 38.5662H32.978V1.99595H1.98238V31.4384L9.06167 38.5662Z" fill="#595757"/>
<path d="M8.652 31.8554H0.991211L8.652 39.5642V31.8554Z" fill="white"/>
<path d="M8.65183 40.5621C8.39192 40.5621 8.14082 40.4601 7.95139 40.2694L0.2906 32.5606C0.00866132 32.2767 -0.0794444 31.8465 0.0747406 31.4739C0.228926 31.1013 0.590159 30.8574 0.99104 30.8574H8.65183C9.19809 30.8574 9.64302 31.3054 9.64302 31.8554V39.5686C9.64302 39.9722 9.40073 40.3359 9.03069 40.4912C8.90734 40.5444 8.77959 40.5666 8.65183 40.5666V40.5621ZM3.38311 32.8533L7.66064 37.1602V32.8533H3.38311Z" fill="#595757"/>
<path d="M20.5065 8.67574C20.5065 6.99027 19.1496 5.62859 17.48 5.62859C15.8104 5.62859 14.4536 6.9947 14.4536 8.67574C14.4536 10.3568 15.8104 11.7229 17.48 11.7229C19.1496 11.7229 20.5065 10.3568 20.5065 8.67574Z" fill="#82BC5E"/>
<path d="M21.5243 13.2709H13.4317C11.5331 13.2709 9.99121 14.8233 9.99121 16.7349V20.474H24.9648V16.7349C24.9648 14.8233 23.4229 13.2709 21.5243 13.2709Z" fill="#82BC5E"/>
<path d="M42.3303 41.0367C43.2334 41.946 43.2334 43.4186 42.3303 44.3234C41.4272 45.2327 39.9691 45.2327 39.066 44.3234L35.0528 40.2827C34.1497 39.3734 34.1497 37.9053 35.0528 36.9961C35.9559 36.0868 37.414 36.0868 38.3171 36.9961L42.3303 41.0367Z" fill="white"/>
<path d="M40.7005 46C39.8194 46 38.9912 45.654 38.3657 45.0286L34.3525 40.988C33.7269 40.3626 33.3877 39.5287 33.3877 38.6372C33.3877 37.7456 33.7313 36.9162 34.3525 36.2864C34.9736 35.6565 35.8062 35.315 36.6873 35.315C37.5683 35.315 38.3965 35.661 39.0221 36.2864L43.0353 40.3271C43.6564 40.9569 44 41.7908 44 42.6779C44 43.5649 43.6564 44.3988 43.0353 45.0286C42.4097 45.654 41.5815 46 40.7005 46ZM36.6873 37.311C36.3348 37.311 36.0044 37.4485 35.7577 37.7013C35.511 37.9541 35.3701 38.2868 35.3701 38.6416C35.3701 38.9964 35.5066 39.3291 35.7577 39.5775L39.771 43.6182C40.2688 44.1194 41.1366 44.1194 41.6344 43.6182C41.8855 43.3698 42.0221 43.0371 42.0221 42.6823C42.0221 42.3275 41.8855 41.9948 41.6344 41.742L37.6212 37.7013C37.3701 37.4529 37.0397 37.311 36.6873 37.311Z" fill="#595757"/>
<path d="M38.4757 26.351C34.6122 22.4611 28.3479 22.4611 24.4845 26.351C20.6211 30.2409 20.6211 36.5481 24.4845 40.438C28.3479 44.3278 34.6122 44.3278 38.4757 40.438C42.3391 36.5481 42.3391 30.2409 38.4757 26.351Z" fill="white"/>
<path d="M31.4758 44.3544C28.5683 44.3544 25.8326 43.2145 23.7798 41.1432C21.7269 39.0718 20.5903 36.3219 20.5903 33.3945C20.5903 30.4671 21.7225 27.7127 23.7798 25.6457C25.837 23.5788 28.5683 22.4345 31.4758 22.4345C34.3833 22.4345 37.119 23.5744 39.1718 25.6457C41.2247 27.7171 42.3613 30.4671 42.3613 33.3945C42.3613 36.3219 41.2291 39.0718 39.1718 41.1432C37.1146 43.2145 34.3833 44.3544 31.4758 44.3544ZM31.4758 24.4304C29.0969 24.4304 26.8635 25.3619 25.1806 27.0562C23.4978 28.7506 22.5727 30.9993 22.5727 33.3945C22.5727 35.7896 23.4978 38.0384 25.1806 39.7327C26.8635 41.4271 29.0969 42.3585 31.4758 42.3585C33.8546 42.3585 36.0881 41.4271 37.7709 39.7327C39.4538 38.0384 40.3789 35.7896 40.3789 33.3945C40.3789 30.9993 39.4538 28.7506 37.7709 27.0562C36.0881 25.3619 33.8546 24.4304 31.4758 24.4304Z" fill="#595757"/>
<path d="M35.8809 28.959C33.4492 26.5107 29.5065 26.5107 27.0748 28.959C24.643 31.4074 24.643 35.3771 27.0748 37.8255C29.5065 40.2738 33.4492 40.2738 35.8809 37.8255C38.3126 35.3771 38.3126 31.4074 35.8809 28.959Z" fill="white"/>
<path d="M31.4757 40.6642C29.5462 40.6642 27.7357 39.9101 26.37 38.5351C23.555 35.7009 23.555 31.0925 26.37 28.2582C27.7357 26.8832 29.5462 26.1292 31.4757 26.1292C33.4053 26.1292 35.2158 26.8832 36.5815 28.2582C37.9427 29.6288 38.696 31.4562 38.696 33.3989C38.696 35.3416 37.9471 37.1646 36.5815 38.5396C35.2158 39.9101 33.4053 40.6686 31.4757 40.6686V40.6642ZM31.4757 28.1207C30.0793 28.1207 28.7621 28.6707 27.7709 29.6642C25.7313 31.7179 25.7313 35.0622 27.7709 37.1202C28.7621 38.1138 30.0749 38.6638 31.4757 38.6638C32.8766 38.6638 34.1894 38.1138 35.1806 37.1202C36.1718 36.1223 36.7136 34.8005 36.7136 33.3945C36.7136 31.9884 36.1674 30.6622 35.1806 29.6642C34.1894 28.6663 32.8766 28.1207 31.4757 28.1207Z" fill="#82BC5E"/>
<path d="M24.7488 26.6349H10.2114C9.66515 26.6349 9.22021 26.1869 9.22021 25.6369C9.22021 25.0869 9.66515 24.6389 10.2114 24.6389H24.7488C25.2951 24.6389 25.74 25.0869 25.74 25.6369C25.74 26.1869 25.2951 26.6349 24.7488 26.6349Z" fill="#595757"/>
<path d="M21.189 31.7356H13.7661C13.2198 31.7356 12.7749 31.2876 12.7749 30.7376C12.7749 30.1876 13.2198 29.7397 13.7661 29.7397H21.189C21.7353 29.7397 22.1802 30.1876 22.1802 30.7376C22.1802 31.2876 21.7353 31.7356 21.189 31.7356Z" fill="#595757"/>
</g>
<defs>
<clipPath id="clip0_6_311">
<rect width="44" height="46" fill="white"/>
</clipPath>
</defs>
</svg>
