<svg width="17" height="19" viewBox="0 0 17 19" fill="none" xmlns="http://www.w3.org/2000/svg">
<path d="M14.6667 7.33333H15.5833C16.0896 7.33333 16.5 7.74372 16.5 8.25V17.4167C16.5 17.9229 16.0896 18.3333 15.5833 18.3333H0.916667C0.41041 18.3333 0 17.9229 0 17.4167V8.25C0 7.74372 0.41041 7.33333 0.916667 7.33333H1.83333V6.41667C1.83333 2.87284 4.70618 0 8.25 0C11.7938 0 14.6667 2.87284 14.6667 6.41667V7.33333ZM1.83333 9.16667V16.5H14.6667V9.16667H1.83333ZM7.33333 11H9.16667V14.6667H7.33333V11ZM12.8333 7.33333V6.41667C12.8333 3.88536 10.7813 1.83333 8.25 1.83333C5.7187 1.83333 3.66667 3.88536 3.66667 6.41667V7.33333H12.8333Z" fill="#B5B5B5"/>
</svg>
