<svg width="15" height="20" viewBox="0 0 15 20" fill="none" xmlns="http://www.w3.org/2000/svg">
<path d="M0 19.25C0 15.1999 3.28324 11.9167 7.33333 11.9167C11.3834 11.9167 14.6667 15.1999 14.6667 19.25H12.8333C12.8333 16.2124 10.3709 13.75 7.33333 13.75C4.29577 13.75 1.83333 16.2124 1.83333 19.25H0ZM7.33333 11C4.29458 11 1.83333 8.53875 1.83333 5.5C1.83333 2.46125 4.29458 0 7.33333 0C10.3721 0 12.8333 2.46125 12.8333 5.5C12.8333 8.53875 10.3721 11 7.33333 11ZM7.33333 9.16667C9.35917 9.16667 11 7.52583 11 5.5C11 3.47417 9.35917 1.83333 7.33333 1.83333C5.3075 1.83333 3.66667 3.47417 3.66667 5.5C3.66667 7.52583 5.3075 9.16667 7.33333 9.16667Z" fill="#B5B5B5"/>
</svg>
